<svg width="30" height="28" viewBox="0 0 30 28" fill="none" xmlns="http://www.w3.org/2000/svg">
<path d="M29.8472 10.7275C29.6296 10.2949 29.1689 10.0318 28.6929 10.0732L27.2459 10.179C25.6764 4.50589 20.4809 0.321777 14.3144 0.321777C6.90926 0.321683 0.884766 6.34665 0.884766 13.7512C0.884766 21.1563 6.90926 27.1807 14.3143 27.1807C18.6007 27.1807 22.6658 25.107 25.1885 21.6343C25.5757 21.1001 25.4566 20.3544 24.9234 19.9661C24.3892 19.5785 23.6429 19.699 23.2557 20.2307C21.1805 23.0874 17.838 24.7933 14.3137 24.7933C8.2249 24.7933 3.27197 19.8399 3.27197 13.7516C3.27197 7.66322 8.22499 2.71002 14.3138 2.71002C19.2176 2.71002 23.3804 5.92576 24.8162 10.3572L24.0628 10.4123C23.5816 10.4471 23.1684 10.7698 23.0167 11.2276C22.8645 11.6862 23.0044 12.1908 23.3692 12.5065L25.5368 14.3784C25.7477 14.7181 26.1206 14.9453 26.5487 14.9453C26.5711 14.9453 26.592 14.9403 26.614 14.9392C26.6211 14.9392 26.6268 14.9423 26.6334 14.9423C26.6621 14.9423 26.6912 14.9418 26.7208 14.9392C27.0364 14.9157 27.3296 14.7681 27.537 14.5286L29.6827 12.0442C29.9994 11.6791 30.0638 11.1585 29.8472 10.7275Z" fill="#916ee1"/>
<path d="M8.00024 17.9117V16.7522L9.05754 15.7967C10.8447 14.198 11.713 13.2785 11.738 12.3224C11.738 11.6548 11.3355 11.1267 10.3906 11.1267C9.68634 11.1267 9.06928 11.4781 8.64125 11.8065L8.09988 10.4335C8.71685 9.96926 9.67301 9.59082 10.7809 9.59082C12.6314 9.59082 13.6509 10.6731 13.6509 12.1584C13.6509 13.5303 12.657 14.6259 11.4735 15.6827L10.7181 16.312V16.3365H13.8021V17.9107H8.00024V17.9117Z" fill="#AECCDD"/>
<path d="M18.3756 17.9117V15.9601H14.7507V14.7149L17.847 9.72925H20.1884V14.5254H21.1701V15.9601H20.1884V17.9117H18.3756ZM18.3756 14.5254V12.7131C18.3756 12.2218 18.4007 11.7192 18.4385 11.1901H18.3884C18.1233 11.7192 17.9093 12.1973 17.633 12.7131L16.538 14.5003V14.5254H18.3756Z" fill="#AECCDD"/>
</svg>
